<svg width="32" height="32" viewBox="0 0 32 32" fill="none" xmlns="http://www.w3.org/2000/svg">
<path d="M6 22.6666H12C12.93 22.6666 13.395 22.6666 13.7765 22.7689C14.8117 23.0463 15.6204 23.8549 15.8978 24.8902C16 25.2717 16 25.7367 16 26.6666V11.3333C16 8.50489 16 7.09067 15.1213 6.21199C14.2426 5.33331 12.8284 5.33331 10 5.33331H6C5.05719 5.33331 4.58579 5.33331 4.29289 5.62621C4 5.9191 4 6.3905 4 7.33331V20.6666C4 21.6095 4 22.0809 4.29289 22.3738C4.58579 22.6666 5.05719 22.6666 6 22.6666Z" stroke="#495A75" stroke-width="2"/>
<path d="M26 22.6666H20C19.07 22.6666 18.605 22.6666 18.2235 22.7689C17.1883 23.0463 16.3796 23.8549 16.1022 24.8902C16 25.2717 16 25.7367 16 26.6666V11.3333C16 8.50489 16 7.09067 16.8787 6.21199C17.7574 5.33331 19.1716 5.33331 22 5.33331H26C26.9428 5.33331 27.4142 5.33331 27.7071 5.62621C28 5.9191 28 6.3905 28 7.33331V20.6666C28 21.6095 28 22.0809 27.7071 22.3738C27.4142 22.6666 26.9428 22.6666 26 22.6666Z" stroke="#495A75" stroke-width="2"/>
</svg>
