<svg width="35" height="32" viewBox="0 0 35 32" fill="none" xmlns="http://www.w3.org/2000/svg">
<path d="M7.11111 17.0128C7.11111 15.2024 7.11111 14.2973 7.50146 13.5016C7.8918 12.706 8.62488 12.1169 10.091 10.9387L11.5133 9.79588C14.1633 7.66638 15.4883 6.60162 17.0667 6.60162C18.645 6.60162 19.97 7.66638 22.6201 9.79588L24.0423 10.9387C25.5085 12.1169 26.2415 12.706 26.6319 13.5016C27.0222 14.2973 27.0222 15.2024 27.0222 17.0128V22.6666C27.0222 25.1808 27.0222 26.4379 26.1891 27.2189C25.356 28 24.0151 28 21.3333 28H12.8C10.1182 28 8.77735 28 7.94423 27.2189C7.11111 26.4379 7.11111 25.1808 7.11111 22.6666V17.0128Z" stroke="#0BCAD4" stroke-width="2"/>
<path d="M20.6222 28V21C20.6222 20.4477 20.1745 20 19.6222 20H14.5111C13.9588 20 13.5111 20.4477 13.5111 21V28" stroke="#0BCAD4" stroke-width="2" stroke-linecap="round" stroke-linejoin="round"/>
</svg>
