<svg width="35" height="32" viewBox="0 0 35 32" fill="none" xmlns="http://www.w3.org/2000/svg">
<path d="M7.11108 17.0128C7.11108 15.2025 7.11108 14.2973 7.50143 13.5017C7.89177 12.706 8.62485 12.1169 10.091 10.9388L11.5132 9.79591C14.1633 7.66641 15.4883 6.60165 17.0666 6.60165C18.645 6.60165 19.97 7.66641 22.6201 9.79591L24.0423 10.9388C25.5084 12.1169 26.2415 12.706 26.6318 13.5017C27.0222 14.2973 27.0222 15.2025 27.0222 17.0128V22.6667C27.0222 25.1808 27.0222 26.4379 26.1891 27.219C25.356 28 24.0151 28 21.3333 28H12.8C10.1182 28 8.77732 28 7.9442 27.219C7.11108 26.4379 7.11108 25.1808 7.11108 22.6667V17.0128Z" stroke="#495A75" stroke-width="2"/>
<path d="M20.6222 28V21C20.6222 20.4477 20.1745 20 19.6222 20H14.5111C13.9588 20 13.5111 20.4477 13.5111 21V28" stroke="#495A75" stroke-width="2" stroke-linecap="round" stroke-linejoin="round"/>
</svg>
